PathFileType	4	(X/Y/Z)	Patient4_TMGait_0pt5_01_left_13.trc.trc
DataRate	CameraRate	NumFrames	NumMarkers	Units	OrigDataRate	OrigDataStartFrame	OrigNumFrames
74.866310160428	74.866310160428	4	33	mm	74.866310160428	1	       141
Frame#	Time	L.ASIS			Sacral			L.Shoulder			Chest			R.Shoulder			Neck			R.ASIS			R.Thigh.Superior			R.Thigh.Lateral			R.Thigh.Inferior			R.Patella			L.Thigh.Superior			L.Thigh.Lateral			L.Thigh.Inferior			L.Patella			L.Shank.Superior			L.Shank.Lateral			L.Shank.Inferior			R.Shank.Superior			R.Shank.Lateral			R.Shank.Inferior			R.Heel			R.Midfoot.Superior			R.Midfoot.Lateral			R.Toe			L.Heel			L.Midfoot.Lateral			L.Midfoot.Superior			L.Toe			L.Elbow			L.Wrist			R.Elbow			R.Wrist			
		X1	Y1	Z1	X2	Y2	Z2	X3	Y3	Z3	X4	Y4	Z4	X5	Y5	Z5	X6	Y6	Z6	X7	Y7	Z7	X8	Y8	Z8	X9	Y9	Z9	X10	Y10	Z10	X11	Y11	Z11	X12	Y12	Z12	X13	Y13	Z13	X14	Y14	Z14	X15	Y15	Z15	X16	Y16	Z16	X17	Y17	Z17	X18	Y18	Z18	X19	Y19	Z19	X20	Y20	Z20	X21	Y21	Z21	X22	Y22	Z22	X23	Y23	Z23	X24	Y24	Z24	X25	Y25	Z25	X26	Y26	Z26	X27	Y27	Z27	X28	Y28	Z28	X29	Y29	Z29	X30	Y30	Z30	X31	Y31	Z31	X32	Y32	Z32	X33	Y33	Z33	

1	17.330000000000	785.076309059582	961.035783487314	342.842174072219	574.966848099827	1002.469553118047	506.327760861793	722.575870518961	1436.521332253553	319.509781590320	836.576648808669	1370.368733184798	475.208441906409	757.949721890260	1436.851639618893	655.091013143173	727.761946586453	1497.277896040724	471.729533771205	808.171397055216	946.144167213985	616.522398639614	849.045251191388	743.747401996041	592.525207421665	764.519789577977	635.944972729185	649.406800429370	841.411944087063	582.748933874438	570.703347020608	839.281067340229	495.403669864301	574.751011208529	869.911775777415	774.258242938962	378.522552175402	825.036912359024	646.818104928900	305.309758756018	926.698268945232	584.457233584649	368.866716685116	938.449095805220	493.076112297646	364.479997108637	871.152628263073	426.280033021746	357.418802897987	729.635008709282	384.546020468679	307.508360999871	715.015534265277	256.526401226316	364.766353002221	814.594310805991	406.592503125098	581.284244050608	743.637873581210	300.840669211070	638.254638487654	790.891524335733	207.648825276274	576.672870225593	660.974992186210	42.620410420227	537.214872849214	829.885466733392	97.624497162879	583.996089689731	739.496581154695	36.019879355144	617.905093559002	947.994473537411	44.752748021031	619.312394848428	521.477883901232	195.481817360163	399.847210389093	580.672683418942	148.213816201106	321.475042752807	685.613781183310	154.431130610213	344.752131798766	761.931418513914	40.671618393701	320.271831875149	686.768738215809	1078.059180320046	214.508469426524	739.152360030684	823.623305593357	207.803998505905	788.384279847161	1091.735491885132	778.570564260654	1004.553278761108	952.088091294939	750.739265437775	
2	17.343357142857	783.696839360557	961.474727729595	343.478229590613	574.148192516165	1002.985981219109	507.588661665824	721.561948626102	1436.561518696715	320.026854670867	836.182168932907	1370.497362115746	475.299736610325	758.484111382063	1437.362944674307	655.452131835824	727.526817039050	1497.477527129676	472.089513630500	807.622265256610	946.176135740121	617.086342430246	847.535712269437	743.445731083842	592.731937089331	762.642172638267	635.994633867577	649.786764880143	838.934517118597	582.551655433948	570.822218701140	836.495318051654	495.224684524375	574.873872002285	869.729537662157	776.227694873756	379.060482246280	825.843316995296	648.420686165714	305.754592127843	928.276371172067	587.029930064898	368.936119260147	941.121973607868	496.062772780197	364.485756280804	875.428111156539	428.205708739552	357.330449226814	734.862965162232	382.726400467978	307.898228500527	724.282993043206	254.136181037111	364.612905104221	811.573041152822	406.390028318454	581.355773543469	740.467833954187	300.786055120140	638.404890180422	787.439453575372	207.569333253099	576.706589846701	657.098812427877	42.587285814686	537.254997898175	826.057314816164	97.646630977463	584.050126861669	735.649124377201	36.019084066210	617.955691669037	944.137456987329	44.795695846512	619.355944101409	532.882425523518	187.296195983219	400.449784600354	592.888861487931	142.121774137279	321.475223487851	697.716232808262	151.413007475414	344.221185203426	777.252224360708	40.198500129603	318.636756380420	681.792789813204	1078.320968061189	216.151969242572	728.788794514307	823.118947337078	210.512443408583	793.866831337365	1093.431648766717	779.635714283291	1014.142245102878	962.212186493426	749.412443126760	
3	17.356714285714	782.037300523644	961.982444245711	344.207414785356	573.184755492203	1003.591817200265	509.109342981550	720.317006410474	1436.617093619256	320.651045993622	835.716922372009	1370.643166116226	475.376247735588	759.177002610198	1437.958272062398	655.873262729823	727.240268207067	1497.718434058247	472.530048569637	806.975806749886	946.182144102631	617.708721264964	845.661473371459	743.069331073375	592.822146191160	760.426120747020	636.057310430806	650.235402080960	835.896671878002	582.319664490110	570.893886750137	833.080203062601	495.005836962984	574.995603283593	869.403550417617	778.415622601349	379.647272991863	826.545364546321	650.193874688373	306.273786009256	929.738463325754	589.852665997970	369.136761878250	943.893944001614	499.538932811579	364.594588120261	880.344036461225	430.463585267917	357.271536921315	741.398998466698	380.119617140654	308.237473107298	736.046930989984	251.042492719105	364.352691831890	807.872443621202	406.137216113218	581.434807132322	736.574570565268	300.709858169764	638.580738214800	783.178974042753	207.452891151434	576.740214566720	652.310105949157	42.545431738639	537.300189385780	821.319581318117	97.669099853297	584.115247649480	730.890223124003	36.016730258142	618.022882730348	939.366792811845	44.852243321534	619.413707810266	547.791906908996	176.755347386893	400.914083627400	608.860164897703	134.371830481060	321.292356690925	713.291653284158	147.662591021043	343.517607540237	796.900117180937	39.961415000374	316.731288487133	675.605291182547	1078.750548327532	218.096340909582	716.292994697669	822.722870591687	213.806625369775	800.607701165139	1095.564136232153	780.850445205877	1025.527445938257	974.987260034305	747.600485530265	
4	17.370071428571	780.141709115029	962.525396310670	344.979616549019	572.114088309751	1004.249653341161	510.833087593929	718.870666094269	1436.675137902951	321.355969446652	835.191151121993	1370.781798621959	475.415768679416	760.013825855739	1438.592612223530	656.324136044208	726.907273033149	1497.975053988818	473.031082368747	806.249589917759	946.139786945349	618.336105004745	843.459736280265	742.616508323837	592.746773272930	757.938689509634	636.119517257955	650.722904997130	832.369132073368	582.049093238276	570.891227992215	829.112820626779	494.746686713356	575.095290478892	868.871933152580	780.662423155626	380.243819704768	827.000684569155	652.015163741823	306.823637263152	930.845974035594	592.718671716257	369.495078790979	946.485448339520	503.337777547457	364.831840304374	885.625240289375	432.963789072702	357.258968153862	749.121214718096	376.706118556029	308.450510168895	750.098248428107	247.349663393596	363.982745402964	803.576082787864	405.832888160667	581.505161672037	732.044468523833	300.608757107212	638.765234555748	778.197795279652	207.294178053145	576.761809276045	646.709579234618	42.494614537415	537.344263181169	815.766254829660	97.687708666072	584.179521849848	725.317579160921	36.012116522109	618.098886073199	933.778065027803	44.922232132007	619.477462401839	566.112521901897	164.101518344166	401.118827620710	628.497513279624	125.198055865323	320.886314802026	732.139733881195	143.365847777359	342.680492662272	820.577178122289	40.196460663318	314.739224807988	668.350607303350	1079.363564909351	220.272786067363	702.075610322910	822.511303388509	217.578651770181	808.425690144251	1098.078033421274	782.124711219432	1038.229471069030	990.169529042339	745.268416581559	
